# xmcd
#
# Track frame offsets:
#	150
#	13445
#	23703
#	34087
#	47459
#	59897
#	70538
#	81590
#	93450
#	105317
#	115798
#	125986
#	136962
#	147506
#	160592
#	173400
#	186027
#	196808
#	206899
#	220215
#	229630
#
# Disc length: 3177 seconds
#
# Revision: 0
# Processed by: cddbd v1.5.2PL0 Copyright (c) Steve Scherf et al.
# Submitted via: SynApp - FreeCDDB Version: 2.3
#
DISCID=2c0c6715
DTITLE=Various Artist - Golden Sound Of Music - The Country Stars - CD2
DYEAR=1989
DGENRE=Country
TTITLE0=Patti Page - Tennessee Waltz
TTITLE1=Jimmy Rodgers - Kisses Sweeter Than Wine
TTITLE2=Roger Miller - King Of The Road
TTITLE3=Tillman Frank - Your Cheating Heart
TTITLE4=Johnny Ray - Just Walking In The Rain
TTITLE5=Johnny Cash - Cry Cry Cry
TTITLE6=George Jones - Ruby Don't Take Your Love To Town
TTITLE7=Frankie Lane - High Noon
TTITLE8=George Jones - Geen Green Gras Of Home
TTITLE9=Lynn Anderson - Silver Threads And Golden Needles
TTITLE10=Johnny Cash - I Heard That Lonesome Whistle
TTITLE11=Patsy Cline - Stop The World
TTITLE12=George Jones - Four O Thirty Three
TTITLE13=Hoyt Axton - Della And The Dealer
TTITLE14=Lynn Anderson - Rose Garden
TTITLE15=George Jones - Wrapped Around Her Finger
TTITLE16=Patsy Cline - Just Out Of Reach
TTITLE17=Johnny Cash - Train Of Love
TTITLE18=Jimmy Dean - Big Bad John
TTITLE19=Skeeter Davis - Am I That Easy To Forget
TTITLE20=Duane Eddy - Because They're Young
EXTD=
EXTT0=
EXTT1=
EXTT2=
EXTT3=
EXTT4=
EXTT5=
EXTT6=
EXTT7=
EXTT8=
EXTT9=
EXTT10=
EXTT11=
EXTT12=
EXTT13=
EXTT14=
EXTT15=
EXTT16=
EXTT17=
EXTT18=
EXTT19=
EXTT20=
PLAYORDER=
